HIERARCHY
ROOT hip
{
  OFFSET 0 0 0
  CHANNELS 6 Xposition Yposition Zposition Zrotation Yrotation Xrotation
  JOINT abdomen
  {
    OFFSET 0 20.6881 -0.73152
    CHANNELS 3 Zrotation Xrotation Yrotation
    JOINT chest
    {
      OFFSET 0 11.7043 -0.48768
      CHANNELS 3 Zrotation Xrotation Yrotation
      JOINT neck
      {
        OFFSET 0 22.1894 -2.19456
        CHANNELS 3 Zrotation Xrotation Yrotation
        JOINT head
        {
          OFFSET -0.24384 7.07133 1.2192
          CHANNELS 3 Zrotation Xrotation Yrotation
          JOINT leftEye
          {
            OFFSET 4.14528 8.04674 8.04672
            CHANNELS 3 Zrotation Xrotation Yrotation
            End Site
            {
              OFFSET 1 0 0
            }
          }
          JOINT rightEye
          {
            OFFSET -3.6576 8.04674 8.04672
            CHANNELS 3 Zrotation Xrotation Yrotation
            End Site
            {
              OFFSET 1 0 0
            }
          }
        }
      }
      JOINT rCollar
      {
        OFFSET -2.68224 19.2634 -4.8768
        CHANNELS 3 Zrotation Xrotation Yrotation
        JOINT rShldr
        {
          OFFSET -8.77824 -1.95073 1.46304
          CHANNELS 3 Zrotation Xrotation Yrotation
          JOINT rForeArm
          {
            OFFSET -28.1742 -1.7115 0.48768
            CHANNELS 3 Zrotation Xrotation Yrotation
            JOINT rHand
            {
              OFFSET -22.5879 0.773209 7.07136
              CHANNELS 3 Zrotation Xrotation Yrotation
              JOINT rThumb1
              {
                OFFSET -1.2192 -0.487915 3.41376
                CHANNELS 3 Zrotation Xrotation Yrotation
                JOINT rThumb2
                {
                  OFFSET -3.37035 -0.52449 3.41376
                  CHANNELS 3 Zrotation Xrotation Yrotation
                  End Site
                  {
                    OFFSET -1.78271 -1.18214 1.43049
                  }
                }
              }
              JOINT rIndex1
              {
                OFFSET -7.75947 0.938293 5.60832
                CHANNELS 3 Zrotation Xrotation Yrotation
                JOINT rIndex2
                {
                  OFFSET -2.54057 -0.884171 1.56538
                  CHANNELS 3 Zrotation Xrotation Yrotation
                  End Site
                  {
                    OFFSET -1.62519 -0.234802 1.16502
                  }
                }
              }
              JOINT rMid1
              {
                OFFSET -8.24714 1.18213 3.41376
                CHANNELS 3 Zrotation Xrotation Yrotation
                JOINT rMid2
                {
                  OFFSET -3.10165 -0.590103 1.0647
                  CHANNELS 3 Zrotation Xrotation Yrotation
                  End Site
                  {
                    OFFSET -2.48547 -0.328903 0.83742
                  }
                }
              }
              JOINT rRing1
              {
                OFFSET -8.82822 0.546677 1.51678
                CHANNELS 3 Zrotation Xrotation Yrotation
                JOINT rRing2
                {
                  OFFSET -2.60934 -0.819778 -0.0198488
                  CHANNELS 3 Zrotation Xrotation Yrotation
                  End Site
                  {
                    OFFSET -2.33842 -0.294052 0.168128
                  }
                }
              }
              JOINT rPinky1
              {
                OFFSET -8.27202 -0.0477905 -0.4584
                CHANNELS 3 Zrotation Xrotation Yrotation
                JOINT rPinky2
                {
                  OFFSET -1.82734 -0.647385 -0.700984
                  CHANNELS 3 Zrotation Xrotation Yrotation
                  End Site
                  {
                    OFFSET -1.69225 -0.51767 -0.607171
                  }
                }
              }
            }
          }
        }
      }
      JOINT lCollar
      {
        OFFSET 2.68224 19.2634 -4.8768
        CHANNELS 3 Zrotation Xrotation Yrotation
        JOINT lShldr
        {
          OFFSET 8.77824 -1.95073 1.46304
          CHANNELS 3 Zrotation Xrotation Yrotation
          JOINT lForeArm
          {
            OFFSET 28.1742 -1.7115 0.48768
            CHANNELS 3 Zrotation Xrotation Yrotation
            JOINT lHand
            {
              OFFSET 22.5879 0.773209 7.07136
              CHANNELS 3 Zrotation Xrotation Yrotation
              JOINT lThumb1
              {
                OFFSET 1.2192 -0.487915 3.41376
                CHANNELS 3 Zrotation Xrotation Yrotation
                JOINT lThumb2
                {
                  OFFSET 3.37035 -0.52449 3.41376
                  CHANNELS 3 Zrotation Xrotation Yrotation
                  End Site
                  {
                    OFFSET 1.78271 -1.18214 1.43049
                  }
                }
              }
              JOINT lIndex1
              {
                OFFSET 7.75947 0.938293 5.60832
                CHANNELS 3 Zrotation Xrotation Yrotation
                JOINT lIndex2
                {
                  OFFSET 2.54057 -0.884171 1.56538
                  CHANNELS 3 Zrotation Xrotation Yrotation
                  End Site
                  {
                    OFFSET 1.62519 -0.234802 1.16502
                  }
                }
              }
              JOINT lMid1
              {
                OFFSET 8.24714 1.18213 3.41376
                CHANNELS 3 Zrotation Xrotation Yrotation
                JOINT lMid2
                {
                  OFFSET 3.10165 -0.590103 1.0647
                  CHANNELS 3 Zrotation Xrotation Yrotation
                  End Site
                  {
                    OFFSET 2.48547 -0.328903 0.83742
                  }
                }
              }
              JOINT lRing1
              {
                OFFSET 8.82822 0.546677 1.51678
                CHANNELS 3 Zrotation Xrotation Yrotation
                JOINT lRing2
                {
                  OFFSET 2.60934 -0.819778 -0.0198488
                  CHANNELS 3 Zrotation Xrotation Yrotation
                  End Site
                  {
                    OFFSET 2.33842 -0.294052 0.168128
                  }
                }
              }
              JOINT lPinky1
              {
                OFFSET 8.27202 -0.0477905 -0.4584
                CHANNELS 3 Zrotation Xrotation Yrotation
                JOINT lPinky2
                {
                  OFFSET 1.82734 -0.647385 -0.700984
                  CHANNELS 3 Zrotation Xrotation Yrotation
                  End Site
                  {
                    OFFSET 1.69225 -0.51767 -0.607171
                  }
                }
              }
            }
          }
        }
      }
    }
  }
  JOINT rButtock
  {
    OFFSET -8.77824 4.35084 1.2192
    CHANNELS 3 Zrotation Xrotation Yrotation
    JOINT rThigh
    {
      OFFSET 0 -1.70687 -2.19456
      CHANNELS 3 Zrotation Xrotation Yrotation
      JOINT rShin
      {
        OFFSET 0 -36.8199 0.73152
        CHANNELS 3 Zrotation Xrotation Yrotation
        JOINT rFoot
        {
          OFFSET 0.73152 -45.1104 -5.12064
          CHANNELS 3 Zrotation Xrotation Yrotation
          End Site
          {
            OFFSET -1.1221 -3.69964 12.103
          }
        }
      }
    }
  }
  JOINT lButtock
  {
    OFFSET 8.77824 4.35084 1.2192
    CHANNELS 3 Zrotation Xrotation Yrotation
    JOINT lThigh
    {
      OFFSET 0 -1.70687 -2.19456
      CHANNELS 3 Zrotation Xrotation Yrotation
      JOINT lShin
      {
        OFFSET 0 -36.8199 0.73152
        CHANNELS 3 Zrotation Xrotation Yrotation
        JOINT lFoot
        {
          OFFSET -0.73152 -45.1104 -5.12064
          CHANNELS 3 Zrotation Xrotation Yrotation
          End Site
          {
            OFFSET 1.1221 -3.69964 12.103
          }
        }
      }
    }
  }
}
MOTION
Frames:	4
Frame Time:	0.03333
5.950900012294369 68.18040013313293 22.30276973277796 -16.15220039642811 -21.893000007033216 13.691400205462054 12.814600283971055 6.230259931151505 10.742199653931419 -2.268560034464406 -6.9109698173264915 2.9763300629139264 -2.2039699236913575 13.480099765751246 0.291661990885944 6.921930136510246 -24.403599961011484 2.167470033097044 -0.0 0.0 0.0 -0.0 0.0 0.0 7.403809804148823e-14 1.0137299782252764e-13 -4.2320401577355364e-13 75.15119856962713 46.07070170653028 -16.68819949154486 -28.415499400220646 -36.65690127540641 78.11420293347035 -0.11822399780780193 9.75742980958815 1.3848700529264506 -1.0756600151469447e-09 -5.169320140111823e-09 2.1310499577395873e-09 -1.8394600838823612e-09 -9.061700054768287e-09 3.6887600088105e-09 -1.0756499765212314e-09 -5.1693300793452025e-09 2.131030079272828e-09 7.730910121524428 5.474879855648998 0.41731399283890674 -1.0756600151469447e-09 -5.1693300793452025e-09 2.1310400185062076e-09 2.90554006136521 0.9651829962377875 0.10290200252939893 -1.0756499765212314e-09 -5.1693300793452025e-09 2.1310400185062076e-09 10.278599710243157 0.7318009818271524 0.025912300303053633 -1.0756600151469447e-09 -5.169320140111823e-09 2.1310499577395873e-09 2.221669932038622 -0.7334870246959406 -0.20891999872313852 7.39421999694275e-14 1.0137399878292048e-13 -4.233840187843194e-13 -53.00670075207029 30.5974989532296 -28.429200759695693 28.43280026938829 -35.378699674130225 -75.9675974207404 1.0081500087590451 -27.269699308457866 4.154399810297257 1.1771200076626322e-09 -3.4078498412196254e-09 8.558839848348171e-10 2.013000092613052e-09 -5.736570079704165e-09 1.5060800075343817e-09 1.1771200076626322e-09 -3.4078601780223404e-09 8.558849787581551e-10 -7.730910121524428 5.474879855648998 -0.41731399283890674 1.1771200076626322e-09 -3.4078498412196254e-09 8.558900477671786e-10 -2.90554006136521 0.9651829962377875 -0.10290200252939893 1.1771200076626322e-09 -3.4078601780223404e-09 8.558879605281689e-10 -10.278599710243157 0.7318009818271524 -0.025912300303053633 1.1771300462883457e-09 -3.4078498412196254e-09 8.558829909114791e-10 -2.221669932038622 -0.7334870246959406 0.20891999872313852 -2.0321699793705798e-16 0.0 -3.882510030490358e-19 1.1779900262691112 -0.28553000179557997 -7.034110017212182 -0.14838300491289735 40.670600469461874 1.8780700087651376 -19.192800831884565 -20.670300522952555 -34.041000294994056 2.0321699793705798e-16 0.0 3.882510030490358e-19 72.38749912576486 -60.85150086291009 60.62139861996153 3.1023899552263856 74.79210137401371 -3.3058600099405964 0.3278139953998364 -4.58731982489429 -0.35699899351690423
5.983200010859946 68.12120079994202 22.443369732354768 -16.05239937982318 -21.79649967934469 13.768400343070192 12.644399653817153 6.277739991166848 10.826600301505266 -2.30087003088974 -6.943949812620722 2.9971399417676627 -2.2806099822641897 13.440300253457583 0.2517700042342201 6.906910123638565 -24.59579977670835 2.103380020237287 -0.0 0.0 0.0 -0.0 0.0 0.0 -3.880670058487744e-14 -7.865589838568478e-14 -3.697620002957594e-13 74.61119698365675 46.38850016332722 -15.955400448325241 -28.41490005112098 -36.67400065399354 78.14319708649707 -0.112815995429246 9.536380128610796 1.3528800081750496 8.781979706593261e-12 -3.363380120802073e-09 9.107230092602773e-10 2.5779999947649475e-11 -5.857280081252409e-09 1.572669988799844e-09 8.787800370141174e-12 -3.3633900600354527e-09 9.107099888645501e-10 7.730910121524428 5.474879855648998 0.41731399283890674 8.784250200218407e-12 -3.363380120802073e-09 9.107119767112259e-10 2.90554006136521 0.9651829962377875 0.10290200252939893 8.788750032830487e-12 -3.363380120802073e-09 9.107149584812399e-10 10.278599710243157 0.7318009818271524 0.025912300303053633 8.779390070396317e-12 -3.363380120802073e-09 9.107180396435875e-10 2.221669932038622 -0.7334870246959406 -0.20891999872313852 -3.8809199952646226e-14 -7.865740285948736e-14 -3.699900008739686e-13 -52.982501391840934 30.39419837258417 -28.252799171549068 28.432699524098034 -35.40889935554544 -76.01980055656682 0.9982130440120287 -27.14800070537387 4.1326998724173025 1.092089965492715e-09 -1.6196900171102612e-09 1.4278600298991466e-09 1.8540699618116637e-09 -2.598790081797648e-09 2.4917099497674806e-09 1.092089965492715e-09 -1.6196999563436408e-09 1.4278600298991466e-09 -7.730910121524428 5.474879855648998 -0.41731399283890674 1.092089965492715e-09 -1.6196900171102612e-09 1.4278699691325262e-09 -2.90554006136521 0.9651829962377875 -0.10290200252939893 1.0920800262593354e-09 -1.6196900171102612e-09 1.4278699691325262e-09 -10.278599710243157 0.7318009818271524 -0.025912300303053633 1.092089965492715e-09 -1.6196900171102612e-09 1.4278600298991466e-09 -2.221669932038622 -0.7334870246959406 0.20891999872313852 -2.0321699793705798e-16 0.0 -3.882510030490358e-19 1.0729999868856717 -0.2772729967801221 -7.100600201234964 -0.14719999480431 40.60350069105567 1.876220094717122 -19.187999208898045 -20.510400671840678 -34.1741001913501 2.0321699793705798e-16 0.0 3.882510030490358e-19 72.43740048784097 -61.01399789345386 60.76970251741002 3.1449800266828234 74.95280206480577 -3.3503800367243857 0.3260869980764545 -4.752729931119074 -0.3528430101699366
6.041600013168136 68.08469891548157 22.623469730024226 -15.900000783967268 -21.71899923037985 13.809600044143709 12.448700219944302 6.359180178622318 10.885700220846093 -2.3090099088331026 -6.97360009069457 3.0129400903086063 -2.3931399101610884 13.417299591427565 0.2241209982676118 6.878520015466584 -24.83959996403737 2.0649298971915235 -0.0 0.0 0.0 -0.0 0.0 0.0 2.0653600781079948e-13 -3.9567900631499407e-14 3.6968100136748547e-13 73.84909813644506 46.775601134537695 -14.938600431869197 -28.41500079641124 -36.669099993264055 78.13500085949305 -0.10612200316613021 9.252539664819869 1.3118900152533932 2.4475700131134626e-09 1.0319499702150597e-08 -4.010529967255466e-09 4.202850157456861e-09 1.80872006264295e-08 -6.952690148263237e-09 2.447579952346842e-09 1.0319499702150597e-08 -4.010539906488846e-09 7.730910121524428 5.474879855648998 0.41731399283890674 2.4475700131134626e-09 1.0319499702150597e-08 -4.010539906488846e-09 2.90554006136521 0.9651829962377875 0.10290200252939893 2.447579952346842e-09 1.0319499702150597e-08 -4.010539906488846e-09 10.278599710243157 0.7318009818271524 0.025912300303053633 2.447560073880083e-09 1.0319499702150597e-08 -4.010529967255466e-09 2.221669932038622 -0.7334870246959406 -0.20891999872313852 2.0657900664270525e-13 -3.957209859872271e-14 3.693850082796826e-13 -53.001400525274356 30.14260152431758 -28.026999947777615 28.432699524098034 -35.455098755091406 -76.09939958115415 0.9846010106047222 -26.979600683839916 4.102790047154993 -5.819840082427228e-10 7.214130152802197e-09 1.683859993832465e-09 -1.032259955025702e-09 1.2541499608853311e-08 2.888969976007648e-09 -5.819939971722692e-10 7.214150031268956e-09 1.683859993832465e-09 -7.730910121524428 5.474879855648998 -0.41731399283890674 -5.819820203960468e-10 7.214130152802197e-09 1.683859993832465e-09 -2.90554006136521 0.9651829962377875 -0.10290200252939893 -5.819889778594125e-10 7.214130152802197e-09 1.6838500545990855e-09 -10.278599710243157 0.7318009818271524 -0.025912300303053633 -5.819779950065281e-10 7.214130152802197e-09 1.6838399165810383e-09 -2.221669932038622 -0.7334870246959406 0.20891999872313852 -2.0321699793705798e-16 0.0 -3.882510030490358e-19 0.9332929497247038 -0.25445698998153254 -7.185419624782298 -0.14599299899234824 40.53430062947969 1.8741099931504113 -19.146599724791308 -20.31150044056803 -34.2873003315593 2.0321699793705798e-16 0.0 3.882510030490358e-19 72.4709025657199 -61.174398055922445 60.95740294599114 3.194110004269548 75.13540034207689 -3.4028499768152467 0.33610899334255245 -4.875780057885085 -0.28710998996924786
6.128200014836693 68.04550290107727 22.824169721570797 -15.669000371142852 -21.59649978761567 13.891100422641241 12.089900137559777 6.433799995304708 10.903100127756701 -2.2733800135843194 -7.0529199312995745 3.0146999312369425 -2.487170057247596 13.419599657630567 0.20040499398395403 6.882689845954877 -25.033900062904014 2.036090063751379 -0.0 0.0 0.0 -0.0 0.0 0.0 2.529789927676696e-13 -7.51438028730127e-15 3.704450071364207e-13 72.8658992356109 47.29560051152369 -13.677300133694208 -28.41610045686761 -36.639098387334776 78.0841979124465 -0.10377299839092101 9.148070213917231 1.296829981742044 2.216780020116428e-09 9.056569820067087e-09 -3.894980018108561e-09 3.805109867459793e-09 1.588820010576712e-08 -6.751349904985211e-09 2.216780020116428e-09 9.056560278403042e-09 -3.89499989657532e-09 7.730910121524428 5.474879855648998 0.41731399283890674 2.216780020116428e-09 9.056560278403042e-09 -3.8949899573419405e-09 2.90554006136521 0.9651829962377875 0.10290200252939893 2.216780020116428e-09 9.056569820067087e-09 -3.8949899573419405e-09 10.278599710243157 0.7318009818271524 0.025912300303053633 2.2167700808830483e-09 9.056569820067087e-09 -3.8949899573419405e-09 2.221669932038622 -0.7334870246959406 -0.20891999872313852 2.5303499801825563e-13 -7.517569711098457e-15 3.7019099372085095e-13 -53.10229949478837 29.89530086503893 -27.657500374058266 28.433000052421512 -35.52720164706464 -76.22010268416662 0.9800240368088732 -26.921999991021906 4.092590013403226 -5.804300091038264e-10 6.75136978345197e-09 1.544849975178084e-09 -1.0249799635368334e-09 1.1719599751397597e-08 2.646799958360337e-09 -5.804399980333729e-10 6.751399998721444e-09 1.544849975178084e-09 -7.730910121524428 5.474879855648998 -0.41731399283890674 -5.804239958676318e-10 6.75136978345197e-09 1.544849975178084e-09 -2.90554006136521 0.9651829962377875 -0.10290200252939893 -5.80437016263359e-10 6.751380120254684e-09 1.544849975178084e-09 -10.278599710243157 0.7318009818271524 -0.025912300303053633 -5.804230019442938e-10 6.751380120254684e-09 1.544829997318991e-09 -2.221669932038622 -0.7334870246959406 0.20891999872313852 -2.0321699793705798e-16 0.0 -3.882510030490358e-19 0.6692599811659604 -0.23983099364759647 -7.2774598389428045 -0.14473100148126938 40.45289843495147 1.8715000071138201 -19.113200099749942 -20.196700328545745 -34.340200146681056 2.0321699793705798e-16 0.0 3.882510030490358e-19 72.30770202569161 -61.38370237284831 61.07040159561983 3.2400500700704655 75.2987989575911 -3.449600060363045 0.3621749962473045 -5.05680013457111 -0.14604700017547367
